<svg xmlns="http://www.w3.org/2000/svg" width="18" height="19" viewBox="0 0 18 19" fill="none">
  <g clip-path="url(#clip0_3939_49)">
    <path d="M6.23428 6.73435H6.51553M6.23428 7.0156H6.51553M6.75 6.875C6.75 7.08211 6.58211 7.25 6.375 7.25C6.16789 7.25 6 7.08211 6 6.875C6 6.66789 6.16789 6.5 6.375 6.5C6.58211 6.5 6.75 6.66789 6.75 6.875Z" stroke="#787878" stroke-width="1.5" stroke-linecap="round"/>
    <path d="M11.4843 6.73435H11.7655M11.4843 7.0156H11.7655M12 6.875C12 7.08211 11.8321 7.25 11.625 7.25C11.4179 7.25 11.25 7.08211 11.25 6.875C11.25 6.66789 11.4179 6.5 11.625 6.5C11.8321 6.5 12 6.66789 12 6.875Z" stroke="#787878" stroke-width="1.5" stroke-linecap="round"/>
    <path d="M6 12.5L9 11.8333M12.75 11L12 11.1667M9 11.8333V13.25C9 14.0784 9.67157 14.75 10.5 14.75V14.75C11.3284 14.75 12 14.0784 12 13.25V11.1667M9 11.8333L11.25 11.3333L12 11.1667" stroke="#787878" stroke-width="1.5" stroke-linecap="round"/>
    <path d="M9 17.75C13.5563 17.75 17.25 14.0563 17.25 9.5C17.25 4.94365 13.5563 1.25 9 1.25C4.44365 1.25 0.75 4.94365 0.75 9.5C0.75 14.0563 4.44365 17.75 9 17.75Z" stroke="#787878" stroke-width="1.5" stroke-linecap="round"/>
  </g>
  <defs>
    <clipPath id="clip0_3939_49">
      <rect width="18" height="18" fill="white" transform="translate(0 0.5)"/>
    </clipPath>
  </defs>
</svg>