<svg xmlns="http://www.w3.org/2000/svg" width="21" height="21" viewBox="0 0 21 21" fill="none">
  <path d="M11.9989 12.7278H12.3114M11.9989 13.0403H12.3114M11.9989 17.7278H12.3114M11.9989 18.0403H12.3114M14.4989 15.2278H14.8114M14.4989 15.5403H14.8114M16.9989 12.7278H17.3114M16.9989 13.0403H17.3114M16.9989 17.7278H17.3114M16.9989 18.0403H17.3114M4.23857 9.13411H6.73857C7.65904 9.13411 8.40523 8.38792 8.40523 7.46745V4.96745C8.40523 4.04697 7.65904 3.30078 6.73857 3.30078H4.23857C3.31809 3.30078 2.5719 4.04697 2.5719 4.96745V7.46745C2.5719 8.38792 3.31809 9.13411 4.23857 9.13411ZM4.23857 18.3008H6.73857C7.65904 18.3008 8.40523 17.5546 8.40523 16.6341V14.1341C8.40523 13.2136 7.65904 12.4674 6.73857 12.4674H4.23857C3.31809 12.4674 2.5719 13.2136 2.5719 14.1341V16.6341C2.5719 17.5546 3.31809 18.3008 4.23857 18.3008ZM13.4052 9.13411H15.9052C16.8257 9.13411 17.5719 8.38792 17.5719 7.46745V4.96745C17.5719 4.04697 16.8257 3.30078 15.9052 3.30078H13.4052C12.4848 3.30078 11.7386 4.04697 11.7386 4.96745V7.46745C11.7386 8.38792 12.4848 9.13411 13.4052 9.13411ZM12.5719 12.8841C12.5719 13.1142 12.3854 13.3008 12.1552 13.3008C11.9251 13.3008 11.7386 13.1142 11.7386 12.8841C11.7386 12.654 11.9251 12.4674 12.1552 12.4674C12.3854 12.4674 12.5719 12.654 12.5719 12.8841ZM12.5719 17.8841C12.5719 18.1142 12.3854 18.3008 12.1552 18.3008C11.9251 18.3008 11.7386 18.1142 11.7386 17.8841C11.7386 17.654 11.9251 17.4674 12.1552 17.4674C12.3854 17.4674 12.5719 17.654 12.5719 17.8841ZM15.0719 15.3841C15.0719 15.6142 14.8854 15.8008 14.6552 15.8008C14.4251 15.8008 14.2386 15.6142 14.2386 15.3841C14.2386 15.154 14.4251 14.9674 14.6552 14.9674C14.8854 14.9674 15.0719 15.154 15.0719 15.3841ZM17.5719 12.8841C17.5719 13.1142 17.3854 13.3008 17.1552 13.3008C16.9251 13.3008 16.7386 13.1142 16.7386 12.8841C16.7386 12.654 16.9251 12.4674 17.1552 12.4674C17.3854 12.4674 17.5719 12.654 17.5719 12.8841ZM17.5719 17.8841C17.5719 18.1142 17.3854 18.3008 17.1552 18.3008C16.9251 18.3008 16.7386 18.1142 16.7386 17.8841C16.7386 17.654 16.9251 17.4674 17.1552 17.4674C17.3854 17.4674 17.5719 17.654 17.5719 17.8841Z" stroke="#191919" stroke-width="2" stroke-linecap="round"/>
</svg>