<svg xmlns="http://www.w3.org/2000/svg" width="18" height="19" viewBox="0 0 18 19" fill="none">
  <path d="M11.25 8L8.51517 10.7348C8.36872 10.8813 8.13128 10.8813 7.98484 10.7348L6.75 9.5M5.6875 2.75H12.3125C12.5541 2.75 12.75 2.94588 12.75 3.1875C12.75 4.39562 13.7294 5.375 14.9375 5.375H15.25C15.5261 5.375 15.75 5.59886 15.75 5.875V6.51895C15.75 10.6734 13.4977 14.5013 9.866 16.5189L9.58234 16.6765C9.22018 16.8777 8.77982 16.8777 8.41766 16.6765L8.134 16.5189C4.50235 14.5013 2.25 10.6734 2.25 6.51895V5.875C2.25 5.59886 2.47386 5.375 2.75 5.375H3.0625C4.27062 5.375 5.25 4.39562 5.25 3.1875C5.25 2.94588 5.44588 2.75 5.6875 2.75Z" stroke="#7381FF" stroke-width="1.5" stroke-linecap="round"/>
</svg>